<mxfile host="Electron" agent="Mozilla/5.0 (Macintosh; Intel Mac OS X 10_15_7) AppleWebKit/537.36 (KHTML, like Gecko) draw.io/26.0.16 Chrome/132.0.6834.196 Electron/34.2.0 Safari/537.36" version="26.0.16">
  <diagram id="C5RBs43oDa-KdzZeNtuy" name="Page-1">
    <mxGraphModel dx="3728" dy="1267" grid="1" gridSize="10" guides="1" tooltips="1" connect="1" arrows="1" fold="1" page="1" pageScale="1" pageWidth="827" pageHeight="1169" math="0" shadow="0">
      <root>
        <mxCell id="WIyWlLk6GJQsqaUBKTNV-0" />
        <mxCell id="WIyWlLk6GJQsqaUBKTNV-1" parent="WIyWlLk6GJQsqaUBKTNV-0" />
        <mxCell id="hwMNSgePC5UXe02ij8vF-0" value="&lt;p style=&quot;margin:0px;margin-top:4px;text-align:center;&quot;&gt;&lt;i&gt;&amp;lt;&amp;lt;Abstract Record&amp;gt;&amp;gt;&lt;/i&gt;&lt;/p&gt;&lt;p style=&quot;margin:0px;margin-top:4px;text-align:center;&quot;&gt;&lt;b&gt;ApiBase&lt;/b&gt;&lt;/p&gt;&lt;hr size=&quot;1&quot; style=&quot;border-style:solid;&quot;&gt;&lt;p style=&quot;margin: 0px 0px 0px 4px;&quot;&gt;+ ResponseId: string&lt;/p&gt;&lt;p style=&quot;margin: 0px 0px 0px 4px;&quot;&gt;+ ResponseTime: DateTimeOffset&lt;/p&gt;&lt;p style=&quot;margin: 0px 0px 0px 4px;&quot;&gt;+ ResponseStatus: ResponseStatus&lt;/p&gt;&lt;hr size=&quot;1&quot; style=&quot;border-style:solid;&quot;&gt;&lt;p style=&quot;margin:0px;margin-left:4px;&quot;&gt;&lt;br&gt;&lt;/p&gt;&lt;p style=&quot;margin:0px;margin-left:4px;&quot;&gt;&lt;br&gt;&lt;/p&gt;" style="verticalAlign=top;align=left;overflow=fill;html=1;whiteSpace=wrap;fontFamily=Courier New;" vertex="1" parent="WIyWlLk6GJQsqaUBKTNV-1">
          <mxGeometry x="-1480" y="20" width="240" height="110" as="geometry" />
        </mxCell>
        <mxCell id="hwMNSgePC5UXe02ij8vF-1" value="&lt;p style=&quot;margin:0px;margin-top:4px;text-align:center;&quot;&gt;&lt;i&gt;&amp;lt;&amp;lt;Enumeration&amp;gt;&amp;gt;&lt;/i&gt;&lt;/p&gt;&lt;p style=&quot;margin:0px;margin-top:4px;text-align:center;&quot;&gt;&lt;b&gt;ResponseStatus&lt;/b&gt;&lt;/p&gt;&lt;hr size=&quot;1&quot; style=&quot;border-style:solid;&quot;&gt;&lt;p style=&quot;margin:0px;margin-left:4px;&quot;&gt;Success,&lt;/p&gt;&lt;p style=&quot;margin:0px;margin-left:4px;&quot;&gt;Error&lt;/p&gt;&lt;p style=&quot;margin:0px;margin-left:4px;&quot;&gt;&lt;br&gt;&lt;/p&gt;" style="verticalAlign=top;align=left;overflow=fill;html=1;whiteSpace=wrap;fontFamily=Courier New;" vertex="1" parent="WIyWlLk6GJQsqaUBKTNV-1">
          <mxGeometry x="-1190" y="35" width="130" height="80" as="geometry" />
        </mxCell>
        <mxCell id="hwMNSgePC5UXe02ij8vF-2" value="&lt;p style=&quot;margin:0px;margin-top:4px;text-align:center;&quot;&gt;&lt;i&gt;&amp;lt;&amp;lt;Abstract Record&amp;gt;&amp;gt;&lt;/i&gt;&lt;/p&gt;&lt;p style=&quot;margin:0px;margin-top:4px;text-align:center;&quot;&gt;&lt;b&gt;SuccessBase&lt;/b&gt;&lt;/p&gt;&lt;hr size=&quot;1&quot; style=&quot;border-style:solid;&quot;&gt;&lt;p style=&quot;margin:0px;margin-left:4px;&quot;&gt;+ ResponseStatus: ResponseStatus&lt;/p&gt;&lt;p style=&quot;margin:0px;margin-left:4px;&quot;&gt;&amp;nbsp; &amp;nbsp; = ResponseStatus.Success&lt;/p&gt;&lt;hr size=&quot;1&quot; style=&quot;border-style:solid;&quot;&gt;&lt;p style=&quot;margin:0px;margin-left:4px;&quot;&gt;&lt;br&gt;&lt;/p&gt;" style="verticalAlign=top;align=left;overflow=fill;html=1;whiteSpace=wrap;fontFamily=Courier New;" vertex="1" parent="WIyWlLk6GJQsqaUBKTNV-1">
          <mxGeometry x="-1620" y="170" width="240" height="90" as="geometry" />
        </mxCell>
        <mxCell id="hwMNSgePC5UXe02ij8vF-3" value="&lt;p style=&quot;margin:0px;margin-top:4px;text-align:center;&quot;&gt;&lt;i&gt;&amp;lt;&amp;lt;Abstract Record&amp;gt;&amp;gt;&lt;/i&gt;&lt;/p&gt;&lt;p style=&quot;margin:0px;margin-top:4px;text-align:center;&quot;&gt;&lt;b&gt;ListBase&amp;lt;T&amp;gt;&lt;/b&gt;&lt;/p&gt;&lt;hr size=&quot;1&quot; style=&quot;border-style:solid;&quot;&gt;&lt;p style=&quot;margin:0px;margin-left:4px;&quot;&gt;+ ItemList: IEnumerable&amp;lt;T&amp;gt;&lt;br&gt;&lt;/p&gt;&lt;hr size=&quot;1&quot; style=&quot;border-style:solid;&quot;&gt;&lt;p style=&quot;margin:0px;margin-left:4px;&quot;&gt;&lt;br&gt;&lt;/p&gt;" style="verticalAlign=top;align=left;overflow=fill;html=1;whiteSpace=wrap;fontFamily=Courier New;" vertex="1" parent="WIyWlLk6GJQsqaUBKTNV-1">
          <mxGeometry x="-1600" y="490" width="200" height="80" as="geometry" />
        </mxCell>
        <mxCell id="hwMNSgePC5UXe02ij8vF-4" value="&lt;p style=&quot;margin:0px;margin-top:4px;text-align:center;&quot;&gt;&lt;i&gt;&amp;lt;&amp;lt;Abstract Record&amp;gt;&amp;gt;&lt;/i&gt;&lt;/p&gt;&lt;p style=&quot;margin:0px;margin-top:4px;text-align:center;&quot;&gt;&lt;b&gt;TokenBase&amp;lt;T&amp;gt;&lt;/b&gt;&lt;/p&gt;&lt;hr size=&quot;1&quot; style=&quot;border-style:solid;&quot;&gt;&lt;p style=&quot;margin:0px;margin-left:4px;&quot;&gt;+ NextToken: string?&lt;br&gt;&lt;/p&gt;&lt;hr size=&quot;1&quot; style=&quot;border-style:solid;&quot;&gt;&lt;p style=&quot;margin:0px;margin-left:4px;&quot;&gt;&lt;br&gt;&lt;/p&gt;" style="verticalAlign=top;align=left;overflow=fill;html=1;whiteSpace=wrap;fontFamily=Courier New;" vertex="1" parent="WIyWlLk6GJQsqaUBKTNV-1">
          <mxGeometry x="-1580" y="620" width="160" height="80" as="geometry" />
        </mxCell>
        <mxCell id="hwMNSgePC5UXe02ij8vF-5" value="&lt;p style=&quot;margin:0px;margin-top:4px;text-align:center;&quot;&gt;&lt;i&gt;&amp;lt;&amp;lt;Abstract Record&amp;gt;&amp;gt;&lt;/i&gt;&lt;/p&gt;&lt;p style=&quot;margin:0px;margin-top:4px;text-align:center;&quot;&gt;&lt;b&gt;PoolingBase&amp;lt;T&amp;gt;&lt;/b&gt;&lt;/p&gt;&lt;hr size=&quot;1&quot; style=&quot;border-style:solid;&quot;&gt;&lt;p style=&quot;margin:0px;margin-left:4px;&quot;&gt;&lt;span style=&quot;background-color: transparent; color: light-dark(rgb(0, 0, 0), rgb(255, 255, 255));&quot;&gt;+ NextPooling: string?&lt;/span&gt;&lt;/p&gt;&lt;p style=&quot;margin:0px;margin-left:4px;&quot;&gt;+ NextPoolingInterval: int?&lt;/p&gt;&lt;hr size=&quot;1&quot; style=&quot;border-style:solid;&quot;&gt;&lt;p style=&quot;margin:0px;margin-left:4px;&quot;&gt;&lt;br&gt;&lt;/p&gt;" style="verticalAlign=top;align=left;overflow=fill;html=1;whiteSpace=wrap;fontFamily=Courier New;" vertex="1" parent="WIyWlLk6GJQsqaUBKTNV-1">
          <mxGeometry x="-1600" y="740" width="200" height="90" as="geometry" />
        </mxCell>
        <mxCell id="hwMNSgePC5UXe02ij8vF-6" value="" style="endArrow=diamondThin;endFill=1;endSize=24;html=1;rounded=0;entryX=1;entryY=0.5;entryDx=0;entryDy=0;exitX=0;exitY=0.5;exitDx=0;exitDy=0;" edge="1" parent="WIyWlLk6GJQsqaUBKTNV-1" source="hwMNSgePC5UXe02ij8vF-1" target="hwMNSgePC5UXe02ij8vF-0">
          <mxGeometry width="160" relative="1" as="geometry">
            <mxPoint x="-1320" y="340" as="sourcePoint" />
            <mxPoint x="-1160" y="340" as="targetPoint" />
          </mxGeometry>
        </mxCell>
        <mxCell id="hwMNSgePC5UXe02ij8vF-7" value="" style="endArrow=block;endSize=16;endFill=0;html=1;rounded=0;entryX=0.5;entryY=1;entryDx=0;entryDy=0;exitX=0.5;exitY=0;exitDx=0;exitDy=0;edgeStyle=elbowEdgeStyle;elbow=vertical;" edge="1" parent="WIyWlLk6GJQsqaUBKTNV-1" source="hwMNSgePC5UXe02ij8vF-2" target="hwMNSgePC5UXe02ij8vF-0">
          <mxGeometry width="160" relative="1" as="geometry">
            <mxPoint x="-1320" y="340" as="sourcePoint" />
            <mxPoint x="-980" y="340" as="targetPoint" />
            <Array as="points">
              <mxPoint x="-1410" y="160" />
            </Array>
          </mxGeometry>
        </mxCell>
        <mxCell id="hwMNSgePC5UXe02ij8vF-9" value="" style="endArrow=block;endSize=16;endFill=0;html=1;rounded=0;entryX=0.5;entryY=1;entryDx=0;entryDy=0;exitX=0.5;exitY=0;exitDx=0;exitDy=0;edgeStyle=elbowEdgeStyle;elbow=vertical;" edge="1" parent="WIyWlLk6GJQsqaUBKTNV-1" source="hwMNSgePC5UXe02ij8vF-3" target="hwMNSgePC5UXe02ij8vF-2">
          <mxGeometry width="160" relative="1" as="geometry">
            <mxPoint x="-1350" y="190" as="sourcePoint" />
            <mxPoint x="-1350" y="140" as="targetPoint" />
          </mxGeometry>
        </mxCell>
        <mxCell id="hwMNSgePC5UXe02ij8vF-10" value="&lt;p style=&quot;margin:0px;margin-top:4px;text-align:center;&quot;&gt;&lt;i&gt;&amp;lt;&amp;lt;Record&amp;gt;&amp;gt;&lt;/i&gt;&lt;/p&gt;&lt;p style=&quot;margin:0px;margin-top:4px;text-align:center;&quot;&gt;&lt;b style=&quot;background-color: transparent; color: light-dark(rgb(0, 0, 0), rgb(255, 255, 255));&quot;&gt;Error&lt;/b&gt;&lt;/p&gt;&lt;hr size=&quot;1&quot; style=&quot;border-style:solid;&quot;&gt;&lt;p style=&quot;margin:0px;margin-left:4px;&quot;&gt;+ ResponseStatus: ResponseStatus&lt;/p&gt;&lt;p style=&quot;margin:0px;margin-left:4px;&quot;&gt;&amp;nbsp; &amp;nbsp; = ResponseStatus.Error&lt;/p&gt;&lt;p style=&quot;margin:0px;margin-left:4px;&quot;&gt;+ ErrorDetails: ErrorDetails&lt;/p&gt;&lt;hr size=&quot;1&quot; style=&quot;border-style:solid;&quot;&gt;&lt;p style=&quot;margin:0px;margin-left:4px;&quot;&gt;&lt;br&gt;&lt;/p&gt;" style="verticalAlign=top;align=left;overflow=fill;html=1;whiteSpace=wrap;fontFamily=Courier New;" vertex="1" parent="WIyWlLk6GJQsqaUBKTNV-1">
          <mxGeometry x="-1340" y="170" width="240" height="110" as="geometry" />
        </mxCell>
        <mxCell id="hwMNSgePC5UXe02ij8vF-11" value="" style="endArrow=block;endSize=16;endFill=0;html=1;rounded=0;entryX=0.5;entryY=1;entryDx=0;entryDy=0;edgeStyle=elbowEdgeStyle;elbow=vertical;exitX=0.5;exitY=0;exitDx=0;exitDy=0;" edge="1" parent="WIyWlLk6GJQsqaUBKTNV-1" source="hwMNSgePC5UXe02ij8vF-10" target="hwMNSgePC5UXe02ij8vF-0">
          <mxGeometry width="160" relative="1" as="geometry">
            <mxPoint x="-1220" y="120" as="sourcePoint" />
            <mxPoint x="-1350" y="140" as="targetPoint" />
            <Array as="points">
              <mxPoint x="-1290" y="160" />
            </Array>
          </mxGeometry>
        </mxCell>
        <mxCell id="hwMNSgePC5UXe02ij8vF-13" value="&lt;p style=&quot;margin:0px;margin-top:4px;text-align:center;&quot;&gt;&lt;i&gt;&amp;lt;&amp;lt;Record&amp;gt;&amp;gt;&lt;/i&gt;&lt;/p&gt;&lt;p style=&quot;margin:0px;margin-top:4px;text-align:center;&quot;&gt;&lt;b style=&quot;background-color: transparent; color: light-dark(rgb(0, 0, 0), rgb(255, 255, 255));&quot;&gt;ErrorDetails&lt;/b&gt;&lt;/p&gt;&lt;hr size=&quot;1&quot; style=&quot;border-style:solid;&quot;&gt;&lt;p style=&quot;margin:0px;margin-left:4px;&quot;&gt;+ Message: string&lt;br&gt;&lt;/p&gt;&lt;p style=&quot;margin:0px;margin-left:4px;&quot;&gt;+ Code: int&lt;/p&gt;&lt;hr size=&quot;1&quot; style=&quot;border-style:solid;&quot;&gt;&lt;p style=&quot;margin:0px;margin-left:4px;&quot;&gt;&lt;br&gt;&lt;/p&gt;" style="verticalAlign=top;align=left;overflow=fill;html=1;whiteSpace=wrap;fontFamily=Courier New;" vertex="1" parent="WIyWlLk6GJQsqaUBKTNV-1">
          <mxGeometry x="-1060" y="180" width="130" height="90" as="geometry" />
        </mxCell>
        <mxCell id="hwMNSgePC5UXe02ij8vF-14" value="" style="endArrow=diamondThin;endFill=1;endSize=24;html=1;rounded=0;exitX=0;exitY=0.5;exitDx=0;exitDy=0;entryX=1;entryY=0.5;entryDx=0;entryDy=0;" edge="1" parent="WIyWlLk6GJQsqaUBKTNV-1" source="hwMNSgePC5UXe02ij8vF-13" target="hwMNSgePC5UXe02ij8vF-10">
          <mxGeometry width="160" relative="1" as="geometry">
            <mxPoint x="-1320" y="340" as="sourcePoint" />
            <mxPoint x="-1160" y="340" as="targetPoint" />
          </mxGeometry>
        </mxCell>
        <mxCell id="hwMNSgePC5UXe02ij8vF-15" value="" style="endArrow=block;endSize=16;endFill=0;html=1;rounded=0;entryX=0.5;entryY=1;entryDx=0;entryDy=0;exitX=0.5;exitY=0;exitDx=0;exitDy=0;edgeStyle=elbowEdgeStyle;elbow=vertical;" edge="1" parent="WIyWlLk6GJQsqaUBKTNV-1" source="hwMNSgePC5UXe02ij8vF-4" target="hwMNSgePC5UXe02ij8vF-3">
          <mxGeometry width="160" relative="1" as="geometry">
            <mxPoint x="-1490" y="570.5" as="sourcePoint" />
            <mxPoint x="-1490" y="530.5" as="targetPoint" />
          </mxGeometry>
        </mxCell>
        <mxCell id="hwMNSgePC5UXe02ij8vF-16" value="" style="endArrow=block;endSize=16;endFill=0;html=1;rounded=0;entryX=0.5;entryY=1;entryDx=0;entryDy=0;exitX=0.5;exitY=0;exitDx=0;exitDy=0;edgeStyle=elbowEdgeStyle;elbow=vertical;" edge="1" parent="WIyWlLk6GJQsqaUBKTNV-1" source="hwMNSgePC5UXe02ij8vF-5" target="hwMNSgePC5UXe02ij8vF-4">
          <mxGeometry width="160" relative="1" as="geometry">
            <mxPoint x="-1490" y="720.5" as="sourcePoint" />
            <mxPoint x="-1490" y="680.5" as="targetPoint" />
          </mxGeometry>
        </mxCell>
        <mxCell id="hwMNSgePC5UXe02ij8vF-17" value="&lt;p style=&quot;margin:0px;margin-top:4px;text-align:center;&quot;&gt;&lt;i&gt;&amp;lt;&amp;lt;Record&amp;gt;&amp;gt;&lt;/i&gt;&lt;/p&gt;&lt;p style=&quot;margin:0px;margin-top:4px;text-align:center;&quot;&gt;&lt;b&gt;ContractList&lt;/b&gt;&lt;/p&gt;" style="verticalAlign=top;align=left;overflow=fill;html=1;whiteSpace=wrap;fontFamily=Courier New;" vertex="1" parent="WIyWlLk6GJQsqaUBKTNV-1">
          <mxGeometry x="-1220" y="530" width="140" height="40" as="geometry" />
        </mxCell>
        <mxCell id="hwMNSgePC5UXe02ij8vF-18" value="&lt;p style=&quot;margin:0px;margin-top:4px;text-align:center;&quot;&gt;&lt;i&gt;&amp;lt;&amp;lt;Record&amp;gt;&amp;gt;&lt;/i&gt;&lt;/p&gt;&lt;p style=&quot;margin:0px;margin-top:4px;text-align:center;&quot;&gt;&lt;b&gt;Contract&lt;/b&gt;&lt;/p&gt;" style="verticalAlign=top;align=left;overflow=fill;html=1;whiteSpace=wrap;fontFamily=Courier New;" vertex="1" parent="WIyWlLk6GJQsqaUBKTNV-1">
          <mxGeometry x="-1030" y="530" width="140" height="40" as="geometry" />
        </mxCell>
        <mxCell id="hwMNSgePC5UXe02ij8vF-19" value="" style="endArrow=diamondThin;endFill=1;endSize=24;html=1;rounded=0;exitX=0;exitY=0.5;exitDx=0;exitDy=0;entryX=1;entryY=0.5;entryDx=0;entryDy=0;" edge="1" parent="WIyWlLk6GJQsqaUBKTNV-1" source="hwMNSgePC5UXe02ij8vF-18" target="hwMNSgePC5UXe02ij8vF-17">
          <mxGeometry width="160" relative="1" as="geometry">
            <mxPoint x="-1270" y="550" as="sourcePoint" />
            <mxPoint x="-1050" y="610" as="targetPoint" />
          </mxGeometry>
        </mxCell>
        <mxCell id="hwMNSgePC5UXe02ij8vF-22" value="" style="endArrow=block;endSize=16;endFill=0;html=1;rounded=0;entryX=1;entryY=0.5;entryDx=0;entryDy=0;exitX=0;exitY=0.5;exitDx=0;exitDy=0;edgeStyle=elbowEdgeStyle;elbow=horizontal;" edge="1" parent="WIyWlLk6GJQsqaUBKTNV-1" source="hwMNSgePC5UXe02ij8vF-17" target="hwMNSgePC5UXe02ij8vF-3">
          <mxGeometry width="160" relative="1" as="geometry">
            <mxPoint x="-1490" y="570.5" as="sourcePoint" />
            <mxPoint x="-1490" y="530.5" as="targetPoint" />
            <Array as="points">
              <mxPoint x="-1370" y="540" />
            </Array>
          </mxGeometry>
        </mxCell>
        <mxCell id="hwMNSgePC5UXe02ij8vF-23" value="T = Contract" style="edgeLabel;html=1;align=center;verticalAlign=middle;resizable=0;points=[];fontFamily=Courier New;fontStyle=1" vertex="1" connectable="0" parent="hwMNSgePC5UXe02ij8vF-22">
          <mxGeometry x="-0.3333" y="1" relative="1" as="geometry">
            <mxPoint x="-3" y="-1" as="offset" />
          </mxGeometry>
        </mxCell>
        <mxCell id="hwMNSgePC5UXe02ij8vF-24" value="&lt;p style=&quot;margin:0px;margin-top:4px;text-align:center;&quot;&gt;&lt;i&gt;&amp;lt;&amp;lt;Record&amp;gt;&amp;gt;&lt;/i&gt;&lt;/p&gt;&lt;p style=&quot;margin:0px;margin-top:4px;text-align:center;&quot;&gt;&lt;b&gt;WebSocketList&lt;/b&gt;&lt;/p&gt;" style="verticalAlign=top;align=left;overflow=fill;html=1;whiteSpace=wrap;fontFamily=Courier New;" vertex="1" parent="WIyWlLk6GJQsqaUBKTNV-1">
          <mxGeometry x="-1220" y="700" width="140" height="40" as="geometry" />
        </mxCell>
        <mxCell id="hwMNSgePC5UXe02ij8vF-25" value="&lt;p style=&quot;margin:0px;margin-top:4px;text-align:center;&quot;&gt;&lt;i&gt;&amp;lt;&amp;lt;Record&amp;gt;&amp;gt;&lt;/i&gt;&lt;/p&gt;&lt;p style=&quot;margin:0px;margin-top:4px;text-align:center;&quot;&gt;&lt;b&gt;WebSocketDetails&lt;/b&gt;&lt;/p&gt;" style="verticalAlign=top;align=left;overflow=fill;html=1;whiteSpace=wrap;fontFamily=Courier New;" vertex="1" parent="WIyWlLk6GJQsqaUBKTNV-1">
          <mxGeometry x="-1030" y="700" width="140" height="40" as="geometry" />
        </mxCell>
        <mxCell id="hwMNSgePC5UXe02ij8vF-26" value="" style="endArrow=diamondThin;endFill=1;endSize=24;html=1;rounded=0;exitX=0;exitY=0.5;exitDx=0;exitDy=0;entryX=1;entryY=0.5;entryDx=0;entryDy=0;" edge="1" parent="WIyWlLk6GJQsqaUBKTNV-1" source="hwMNSgePC5UXe02ij8vF-25" target="hwMNSgePC5UXe02ij8vF-24">
          <mxGeometry width="160" relative="1" as="geometry">
            <mxPoint x="-1270" y="720" as="sourcePoint" />
            <mxPoint x="-1050" y="780" as="targetPoint" />
          </mxGeometry>
        </mxCell>
        <mxCell id="hwMNSgePC5UXe02ij8vF-27" value="" style="endArrow=block;endSize=16;endFill=0;html=1;rounded=0;entryX=1;entryY=0.5;entryDx=0;entryDy=0;exitX=0;exitY=0.5;exitDx=0;exitDy=0;edgeStyle=elbowEdgeStyle;elbow=horizontal;" edge="1" parent="WIyWlLk6GJQsqaUBKTNV-1" source="hwMNSgePC5UXe02ij8vF-24" target="hwMNSgePC5UXe02ij8vF-4">
          <mxGeometry width="160" relative="1" as="geometry">
            <mxPoint x="-1490" y="720.5" as="sourcePoint" />
            <mxPoint x="-1400" y="750.5" as="targetPoint" />
          </mxGeometry>
        </mxCell>
        <mxCell id="hwMNSgePC5UXe02ij8vF-28" value="T = WebSocketDetails" style="edgeLabel;html=1;align=center;verticalAlign=middle;resizable=0;points=[];fontFamily=Courier New;fontStyle=1" vertex="1" connectable="0" parent="hwMNSgePC5UXe02ij8vF-27">
          <mxGeometry x="-0.3333" y="1" relative="1" as="geometry">
            <mxPoint x="-23" y="-1" as="offset" />
          </mxGeometry>
        </mxCell>
        <mxCell id="hwMNSgePC5UXe02ij8vF-29" value="&lt;p style=&quot;margin:0px;margin-top:4px;text-align:center;&quot;&gt;&lt;i&gt;&amp;lt;&amp;lt;Record&amp;gt;&amp;gt;&lt;/i&gt;&lt;/p&gt;&lt;p style=&quot;margin:0px;margin-top:4px;text-align:center;&quot;&gt;&lt;b&gt;GdEarthquakeList&lt;/b&gt;&lt;/p&gt;" style="verticalAlign=top;align=left;overflow=fill;html=1;whiteSpace=wrap;fontFamily=Courier New;" vertex="1" parent="WIyWlLk6GJQsqaUBKTNV-1">
          <mxGeometry x="-1220" y="765" width="140" height="40" as="geometry" />
        </mxCell>
        <mxCell id="hwMNSgePC5UXe02ij8vF-30" value="&lt;p style=&quot;margin:0px;margin-top:4px;text-align:center;&quot;&gt;&lt;i&gt;&amp;lt;&amp;lt;Record&amp;gt;&amp;gt;&lt;/i&gt;&lt;/p&gt;&lt;p style=&quot;margin:0px;margin-top:4px;text-align:center;&quot;&gt;&lt;b&gt;EarthquakeInfo&lt;/b&gt;&lt;/p&gt;" style="verticalAlign=top;align=left;overflow=fill;html=1;whiteSpace=wrap;fontFamily=Courier New;" vertex="1" parent="WIyWlLk6GJQsqaUBKTNV-1">
          <mxGeometry x="-1030" y="765" width="140" height="40" as="geometry" />
        </mxCell>
        <mxCell id="hwMNSgePC5UXe02ij8vF-31" value="" style="endArrow=diamondThin;endFill=1;endSize=24;html=1;rounded=0;exitX=0;exitY=0.5;exitDx=0;exitDy=0;entryX=1;entryY=0.5;entryDx=0;entryDy=0;" edge="1" parent="WIyWlLk6GJQsqaUBKTNV-1" source="hwMNSgePC5UXe02ij8vF-30" target="hwMNSgePC5UXe02ij8vF-29">
          <mxGeometry width="160" relative="1" as="geometry">
            <mxPoint x="-1250" y="785" as="sourcePoint" />
            <mxPoint x="-1030" y="845" as="targetPoint" />
          </mxGeometry>
        </mxCell>
        <mxCell id="hwMNSgePC5UXe02ij8vF-32" value="" style="endArrow=block;endSize=16;endFill=0;html=1;rounded=0;entryX=1;entryY=0.5;entryDx=0;entryDy=0;exitX=0;exitY=0.5;exitDx=0;exitDy=0;edgeStyle=elbowEdgeStyle;elbow=horizontal;" edge="1" parent="WIyWlLk6GJQsqaUBKTNV-1" source="hwMNSgePC5UXe02ij8vF-29" target="hwMNSgePC5UXe02ij8vF-5">
          <mxGeometry width="160" relative="1" as="geometry">
            <mxPoint x="-1450" y="845.5" as="sourcePoint" />
            <mxPoint x="-1380" y="875.5" as="targetPoint" />
          </mxGeometry>
        </mxCell>
        <mxCell id="hwMNSgePC5UXe02ij8vF-33" value="T = EarthquakeInfo" style="edgeLabel;html=1;align=center;verticalAlign=middle;resizable=0;points=[];fontFamily=Courier New;fontStyle=1" vertex="1" connectable="0" parent="hwMNSgePC5UXe02ij8vF-32">
          <mxGeometry x="-0.3333" y="1" relative="1" as="geometry">
            <mxPoint x="-23" y="-1" as="offset" />
          </mxGeometry>
        </mxCell>
        <mxCell id="hwMNSgePC5UXe02ij8vF-34" value="&lt;p style=&quot;margin:0px;margin-top:4px;text-align:center;&quot;&gt;&lt;i&gt;&amp;lt;&amp;lt;Record&amp;gt;&amp;gt;&lt;/i&gt;&lt;/p&gt;&lt;p style=&quot;margin:0px;margin-top:4px;text-align:center;&quot;&gt;&lt;b&gt;EarthquakeParameter&lt;/b&gt;&lt;/p&gt;&lt;hr size=&quot;1&quot; style=&quot;border-style:solid;&quot;&gt;&lt;p style=&quot;margin:0px;margin-left:4px;&quot;&gt;+ ChangeTime: DateTimeOffset&lt;br&gt;&lt;/p&gt;&lt;p style=&quot;margin:0px;margin-left:4px;&quot;&gt;+ Version: string&lt;/p&gt;&lt;hr size=&quot;1&quot; style=&quot;border-style:solid;&quot;&gt;&lt;p style=&quot;margin:0px;margin-left:4px;&quot;&gt;&lt;br&gt;&lt;/p&gt;" style="verticalAlign=top;align=left;overflow=fill;html=1;whiteSpace=wrap;fontFamily=Courier New;" vertex="1" parent="WIyWlLk6GJQsqaUBKTNV-1">
          <mxGeometry x="-1290" y="590" width="210" height="90" as="geometry" />
        </mxCell>
        <mxCell id="hwMNSgePC5UXe02ij8vF-35" value="&lt;p style=&quot;margin:0px;margin-top:4px;text-align:center;&quot;&gt;&lt;i&gt;&amp;lt;&amp;lt;Record&amp;gt;&amp;gt;&lt;/i&gt;&lt;/p&gt;&lt;p style=&quot;margin:0px;margin-top:4px;text-align:center;&quot;&gt;&lt;b&gt;Station&lt;/b&gt;&lt;/p&gt;" style="verticalAlign=top;align=left;overflow=fill;html=1;whiteSpace=wrap;fontFamily=Courier New;" vertex="1" parent="WIyWlLk6GJQsqaUBKTNV-1">
          <mxGeometry x="-1030" y="615" width="140" height="40" as="geometry" />
        </mxCell>
        <mxCell id="hwMNSgePC5UXe02ij8vF-36" value="" style="endArrow=diamondThin;endFill=1;endSize=24;html=1;rounded=0;exitX=0;exitY=0.5;exitDx=0;exitDy=0;entryX=1;entryY=0.5;entryDx=0;entryDy=0;" edge="1" parent="WIyWlLk6GJQsqaUBKTNV-1" source="hwMNSgePC5UXe02ij8vF-35" target="hwMNSgePC5UXe02ij8vF-34">
          <mxGeometry width="160" relative="1" as="geometry">
            <mxPoint x="-1270" y="635" as="sourcePoint" />
            <mxPoint x="-1080" y="635" as="targetPoint" />
          </mxGeometry>
        </mxCell>
        <mxCell id="hwMNSgePC5UXe02ij8vF-38" value="" style="endArrow=block;endSize=16;endFill=0;html=1;rounded=0;entryX=1;entryY=0.5;entryDx=0;entryDy=0;exitX=0;exitY=0.5;exitDx=0;exitDy=0;edgeStyle=elbowEdgeStyle;elbow=horizontal;" edge="1" parent="WIyWlLk6GJQsqaUBKTNV-1" source="hwMNSgePC5UXe02ij8vF-34" target="hwMNSgePC5UXe02ij8vF-3">
          <mxGeometry width="160" relative="1" as="geometry">
            <mxPoint x="-1210" y="590.5" as="sourcePoint" />
            <mxPoint x="-1390" y="610.5" as="targetPoint" />
            <Array as="points">
              <mxPoint x="-1370" y="640.5" />
            </Array>
          </mxGeometry>
        </mxCell>
        <mxCell id="hwMNSgePC5UXe02ij8vF-39" value="T = Station" style="edgeLabel;html=1;align=center;verticalAlign=middle;resizable=0;points=[];fontFamily=Courier New;fontStyle=1" vertex="1" connectable="0" parent="hwMNSgePC5UXe02ij8vF-38">
          <mxGeometry x="-0.3333" y="1" relative="1" as="geometry">
            <mxPoint x="8" y="-1" as="offset" />
          </mxGeometry>
        </mxCell>
        <mxCell id="hwMNSgePC5UXe02ij8vF-45" value="" style="endArrow=diamondThin;endFill=1;endSize=24;html=1;rounded=0;exitX=0.5;exitY=0;exitDx=0;exitDy=0;entryX=0.5;entryY=1;entryDx=0;entryDy=0;" edge="1" parent="WIyWlLk6GJQsqaUBKTNV-1" source="hwMNSgePC5UXe02ij8vF-50" target="hwMNSgePC5UXe02ij8vF-51">
          <mxGeometry width="160" relative="1" as="geometry">
            <mxPoint x="-1095" y="395" as="sourcePoint" />
            <mxPoint x="-1005" y="410" as="targetPoint" />
          </mxGeometry>
        </mxCell>
        <mxCell id="hwMNSgePC5UXe02ij8vF-46" value="" style="endArrow=block;endSize=16;endFill=0;html=1;rounded=0;entryX=0.5;entryY=1;entryDx=0;entryDy=0;edgeStyle=elbowEdgeStyle;elbow=vertical;exitX=0.5;exitY=0;exitDx=0;exitDy=0;" edge="1" parent="WIyWlLk6GJQsqaUBKTNV-1" source="hwMNSgePC5UXe02ij8vF-51" target="hwMNSgePC5UXe02ij8vF-2">
          <mxGeometry width="160" relative="1" as="geometry">
            <mxPoint x="-1005" y="320" as="sourcePoint" />
            <mxPoint x="-1350" y="140" as="targetPoint" />
            <Array as="points">
              <mxPoint x="-1240" y="290" />
            </Array>
          </mxGeometry>
        </mxCell>
        <mxCell id="hwMNSgePC5UXe02ij8vF-48" value="" style="endArrow=block;endSize=16;endFill=0;html=1;rounded=0;exitX=1;exitY=0.5;exitDx=0;exitDy=0;entryX=1;entryY=0.5;entryDx=0;entryDy=0;edgeStyle=elbowEdgeStyle;" edge="1" parent="WIyWlLk6GJQsqaUBKTNV-1" source="hwMNSgePC5UXe02ij8vF-50" target="hwMNSgePC5UXe02ij8vF-30">
          <mxGeometry width="160" relative="1" as="geometry">
            <mxPoint x="-970" y="500" as="sourcePoint" />
            <mxPoint x="-810" y="500" as="targetPoint" />
            <Array as="points">
              <mxPoint x="-860" y="620" />
            </Array>
          </mxGeometry>
        </mxCell>
        <mxCell id="hwMNSgePC5UXe02ij8vF-50" value="&lt;p style=&quot;margin:0px;margin-top:4px;text-align:center;&quot;&gt;&lt;i&gt;&amp;lt;&amp;lt;Record&amp;gt;&amp;gt;&lt;/i&gt;&lt;/p&gt;&lt;p style=&quot;margin:0px;margin-top:4px;text-align:center;&quot;&gt;&lt;b&gt;EarthquakeInfoWithTelegrams&lt;/b&gt;&lt;/p&gt;&lt;hr size=&quot;1&quot; style=&quot;border-style:solid;&quot;&gt;&lt;p style=&quot;margin: 0px 0px 0px 4px;&quot;&gt;+ Telegrams&lt;/p&gt;&lt;p style=&quot;margin: 0px 0px 0px 4px;&quot;&gt;&amp;nbsp; &amp;nbsp; : IEnumerable&amp;lt;TelegramItem&amp;gt;&lt;/p&gt;&lt;hr size=&quot;1&quot; style=&quot;border-style:solid;&quot;&gt;&lt;p style=&quot;margin:0px;margin-left:4px;&quot;&gt;&lt;br&gt;&lt;/p&gt;" style="verticalAlign=top;align=left;overflow=fill;html=1;whiteSpace=wrap;fontFamily=Courier New;" vertex="1" parent="WIyWlLk6GJQsqaUBKTNV-1">
          <mxGeometry x="-1120" y="420" width="230" height="90" as="geometry" />
        </mxCell>
        <mxCell id="hwMNSgePC5UXe02ij8vF-51" value="&lt;p style=&quot;margin:0px;margin-top:4px;text-align:center;&quot;&gt;&lt;i&gt;&amp;lt;&amp;lt;Record&amp;gt;&amp;gt;&lt;/i&gt;&lt;/p&gt;&lt;p style=&quot;margin:0px;margin-top:4px;text-align:center;&quot;&gt;&lt;b&gt;GdEarthquakeEvent&lt;/b&gt;&lt;/p&gt;&lt;hr size=&quot;1&quot; style=&quot;border-style:solid;&quot;&gt;&lt;p style=&quot;margin: 0px 0px 0px 4px;&quot;&gt;+ EarthquakeEvent&lt;/p&gt;&lt;p style=&quot;margin: 0px 0px 0px 4px;&quot;&gt;&amp;nbsp;: EarthquakeInfoWithTelegrams&lt;/p&gt;&lt;hr size=&quot;1&quot; style=&quot;border-style:solid;&quot;&gt;&lt;p style=&quot;margin:0px;margin-left:4px;&quot;&gt;&lt;br&gt;&lt;/p&gt;" style="verticalAlign=top;align=left;overflow=fill;html=1;whiteSpace=wrap;fontFamily=Courier New;" vertex="1" parent="WIyWlLk6GJQsqaUBKTNV-1">
          <mxGeometry x="-1120" y="300" width="230" height="90" as="geometry" />
        </mxCell>
        <mxCell id="hwMNSgePC5UXe02ij8vF-53" value="&lt;p style=&quot;margin:0px;margin-top:4px;text-align:center;&quot;&gt;&lt;i&gt;&amp;lt;&amp;lt;Record&amp;gt;&amp;gt;&lt;/i&gt;&lt;/p&gt;&lt;p style=&quot;margin:0px;margin-top:4px;text-align:center;&quot;&gt;&lt;b&gt;WebSocketStart&lt;/b&gt;&lt;/p&gt;&lt;hr size=&quot;1&quot; style=&quot;border-style:solid;&quot;&gt;&lt;p style=&quot;margin: 0px 0px 0px 4px;&quot;&gt;+ Ticket&lt;span style=&quot;background-color: transparent; color: light-dark(rgb(0, 0, 0), rgb(255, 255, 255));&quot;&gt;&amp;nbsp;: string&lt;/span&gt;&lt;/p&gt;&lt;p style=&quot;margin: 0px 0px 0px 4px;&quot;&gt;&lt;span style=&quot;background-color: transparent; color: light-dark(rgb(0, 0, 0), rgb(255, 255, 255));&quot;&gt;+ Classifications&lt;/span&gt;&lt;/p&gt;&lt;p style=&quot;margin: 0px 0px 0px 4px;&quot;&gt;&lt;span style=&quot;background-color: transparent; color: light-dark(rgb(0, 0, 0), rgb(255, 255, 255));&quot;&gt;&amp;nbsp; &amp;nbsp; : IEnumerable&amp;lt;Classification&amp;gt;&lt;/span&gt;&lt;/p&gt;&lt;p style=&quot;margin: 0px 0px 0px 4px;&quot;&gt;+ TestStatus: TestStatus&lt;/p&gt;&lt;p style=&quot;margin: 0px 0px 0px 4px;&quot;&gt;+ Types: IEnumerable&amp;lt;string&amp;gt;?&lt;/p&gt;&lt;p style=&quot;margin: 0px 0px 0px 4px;&quot;&gt;+ Formats: IEnumerable&amp;lt;FormatType&amp;gt;&lt;/p&gt;&lt;p style=&quot;margin: 0px 0px 0px 4px;&quot;&gt;+ Application: string?&lt;/p&gt;&lt;p style=&quot;margin: 0px 0px 0px 4px;&quot;&gt;+ WebSocketUrl: WebSocketUrl&lt;/p&gt;&lt;hr size=&quot;1&quot; style=&quot;border-style:solid;&quot;&gt;&lt;p style=&quot;margin:0px;margin-left:4px;&quot;&gt;&lt;br&gt;&lt;/p&gt;" style="verticalAlign=top;align=left;overflow=fill;html=1;whiteSpace=wrap;fontFamily=Courier New;" vertex="1" parent="WIyWlLk6GJQsqaUBKTNV-1">
          <mxGeometry x="-1390" y="300" width="250" height="180" as="geometry" />
        </mxCell>
        <mxCell id="hwMNSgePC5UXe02ij8vF-54" value="" style="endArrow=block;endSize=16;endFill=0;html=1;rounded=0;entryX=0.5;entryY=1;entryDx=0;entryDy=0;edgeStyle=elbowEdgeStyle;elbow=vertical;exitX=0.5;exitY=0;exitDx=0;exitDy=0;" edge="1" parent="WIyWlLk6GJQsqaUBKTNV-1" source="hwMNSgePC5UXe02ij8vF-53" target="hwMNSgePC5UXe02ij8vF-2">
          <mxGeometry width="160" relative="1" as="geometry">
            <mxPoint x="-995" y="330" as="sourcePoint" />
            <mxPoint x="-1490" y="270" as="targetPoint" />
            <Array as="points">
              <mxPoint x="-1390" y="290" />
            </Array>
          </mxGeometry>
        </mxCell>
      </root>
    </mxGraphModel>
  </diagram>
</mxfile>
